<svg width="170" height="48" viewBox="0 0 170 48" fill="none" xmlns="http://www.w3.org/2000/svg">
<rect x="0.75" y="19.2" width="9.59998" height="9.59999" fill="#FFF4EB"/>
<rect x="29.55" y="28.8" width="9.6" height="9.59999" transform="rotate(180 29.55 28.8)" fill="#FFF4EB"/>
<path d="M10.3501 19.2L19.9501 9.59998V19.2L10.3501 28.7999V19.2Z" fill="#FFF4EB"/>
<path d="M19.95 28.8L10.35 38.4L10.35 28.8L19.95 19.2L19.95 28.8Z" fill="#FFF4EB"/>
<path d="M0.75 19.2L19.95 0V9.59999L10.35 19.2H0.75Z" fill="#FFF4EB"/>
<path d="M29.55 28.8L10.3501 48L10.3501 38.4L19.9501 28.8L29.55 28.8Z" fill="#FFF4EB"/>
<path d="M50.458 34.28C48.946 34.28 47.4806 34.0653 46.062 33.636C44.662 33.2066 43.5513 32.6373 42.73 31.928L43.99 29.1C44.7926 29.7346 45.7726 30.2573 46.93 30.668C48.106 31.06 49.282 31.256 50.458 31.256C51.914 31.256 52.9966 31.0226 53.706 30.556C54.434 30.0893 54.798 29.4733 54.798 28.708C54.798 28.148 54.5926 27.6906 54.182 27.336C53.79 26.9626 53.286 26.6733 52.67 26.468C52.054 26.2626 51.214 26.0293 50.15 25.768C48.6566 25.4133 47.4433 25.0586 46.51 24.704C45.5953 24.3493 44.802 23.7986 44.13 23.052C43.4766 22.2866 43.15 21.26 43.15 19.972C43.15 18.8893 43.4393 17.9093 44.018 17.032C44.6153 16.136 45.502 15.4266 46.678 14.904C47.8726 14.3813 49.3286 14.12 51.046 14.12C52.2406 14.12 53.4166 14.2693 54.574 14.568C55.7313 14.8666 56.73 15.296 57.57 15.856L56.422 18.684C55.5633 18.18 54.6673 17.7973 53.734 17.536C52.8006 17.2746 51.8953 17.144 51.018 17.144C49.5806 17.144 48.5073 17.3866 47.798 17.872C47.1073 18.3573 46.762 19.0013 46.762 19.804C46.762 20.364 46.958 20.8213 47.35 21.176C47.7606 21.5306 48.274 21.8106 48.89 22.016C49.506 22.2213 50.346 22.4546 51.41 22.716C52.866 23.052 54.0606 23.4066 54.994 23.78C55.9273 24.1346 56.7206 24.6853 57.374 25.432C58.046 26.1786 58.382 27.1866 58.382 28.456C58.382 29.5386 58.0833 30.5186 57.486 31.396C56.9073 32.2733 56.0206 32.9733 54.826 33.496C53.6313 34.0186 52.1753 34.28 50.458 34.28Z" fill="#FFF4EB"/>
<path d="M61.6553 19.048H65.1553V34H61.6553V19.048ZM63.4193 16.584C62.7847 16.584 62.2527 16.388 61.8233 15.996C61.394 15.5853 61.1793 15.0813 61.1793 14.484C61.1793 13.8866 61.394 13.392 61.8233 13C62.2527 12.5893 62.7847 12.384 63.4193 12.384C64.054 12.384 64.586 12.58 65.0153 12.972C65.4447 13.3453 65.6593 13.8213 65.6593 14.4C65.6593 15.016 65.4447 15.5386 65.0153 15.968C64.6047 16.3786 64.0727 16.584 63.4193 16.584Z" fill="#FFF4EB"/>
<path d="M74.3691 34.196C73.1558 34.196 71.9704 34.0373 70.8131 33.72C69.6558 33.4026 68.7318 33.0013 68.0411 32.516L69.3851 29.856C70.0571 30.304 70.8598 30.668 71.7931 30.948C72.7451 31.2093 73.6784 31.34 74.5931 31.34C76.6838 31.34 77.7291 30.7893 77.7291 29.688C77.7291 29.1653 77.4584 28.8013 76.9171 28.596C76.3944 28.3906 75.5451 28.1946 74.3691 28.008C73.1371 27.8213 72.1291 27.6066 71.3451 27.364C70.5798 27.1213 69.9078 26.7013 69.3291 26.104C68.7691 25.488 68.4891 24.6386 68.4891 23.556C68.4891 22.1373 69.0771 21.008 70.2531 20.168C71.4478 19.3093 73.0531 18.88 75.0691 18.88C76.0958 18.88 77.1224 19.0013 78.1491 19.244C79.1758 19.468 80.0158 19.776 80.6691 20.168L79.3251 22.828C78.0558 22.0813 76.6278 21.708 75.0411 21.708C74.0144 21.708 73.2304 21.8666 72.6891 22.184C72.1664 22.4826 71.9051 22.884 71.9051 23.388C71.9051 23.948 72.1851 24.3493 72.7451 24.592C73.3238 24.816 74.2104 25.0306 75.4051 25.236C76.5998 25.4226 77.5798 25.6373 78.3451 25.88C79.1104 26.1226 79.7638 26.5333 80.3051 27.112C80.8651 27.6906 81.1451 28.512 81.1451 29.576C81.1451 30.976 80.5384 32.096 79.3251 32.936C78.1118 33.776 76.4598 34.196 74.3691 34.196Z" fill="#FFF4EB"/>
<path d="M97.8858 19.048L90.8858 35.204C90.2325 36.828 89.4391 37.9666 88.5058 38.62C87.5725 39.292 86.4431 39.628 85.1178 39.628C84.3711 39.628 83.6338 39.5066 82.9058 39.264C82.1778 39.0213 81.5805 38.6853 81.1138 38.256L82.5138 35.68C82.8498 35.9973 83.2418 36.2493 83.6898 36.436C84.1565 36.6226 84.6231 36.716 85.0898 36.716C85.7058 36.716 86.2098 36.5573 86.6018 36.24C87.0125 35.9226 87.3858 35.3906 87.7218 34.644L87.9738 34.056L81.4498 19.048H85.0898L89.7938 30.108L94.5258 19.048H97.8858Z" fill="#FFF4EB"/>
<path d="M108.361 18.88C109.817 18.88 111.115 19.1973 112.253 19.832C113.411 20.4666 114.316 21.3626 114.969 22.52C115.623 23.6773 115.949 25.012 115.949 26.524C115.949 28.036 115.623 29.38 114.969 30.556C114.316 31.7133 113.411 32.6093 112.253 33.244C111.115 33.8786 109.817 34.196 108.361 34.196C106.345 34.196 104.749 33.524 103.573 32.18V39.432H100.073V19.048H103.405V21.008C103.984 20.2986 104.693 19.7666 105.533 19.412C106.392 19.0573 107.335 18.88 108.361 18.88ZM107.969 31.2C109.257 31.2 110.312 30.7706 111.133 29.912C111.973 29.0533 112.393 27.924 112.393 26.524C112.393 25.124 111.973 23.9946 111.133 23.136C110.312 22.2773 109.257 21.848 107.969 21.848C107.129 21.848 106.373 22.044 105.701 22.436C105.029 22.8093 104.497 23.3506 104.105 24.06C103.713 24.7693 103.517 25.5906 103.517 26.524C103.517 27.4573 103.713 28.2786 104.105 28.988C104.497 29.6973 105.029 30.248 105.701 30.64C106.373 31.0133 107.129 31.2 107.969 31.2Z" fill="#FFF4EB"/>
<path d="M127.753 18.88C129.638 18.88 131.15 19.4306 132.289 20.532C133.427 21.6333 133.997 23.2666 133.997 25.432V34H130.497V25.88C130.497 24.5733 130.189 23.5933 129.573 22.94C128.957 22.268 128.079 21.932 126.941 21.932C125.653 21.932 124.635 22.324 123.889 23.108C123.142 23.8733 122.769 24.984 122.769 26.44V34H119.269V13.224H122.769V20.784C123.347 20.168 124.057 19.7013 124.897 19.384C125.755 19.048 126.707 18.88 127.753 18.88Z" fill="#FFF4EB"/>
<path d="M152.913 19.048V34H149.581V32.096C149.021 32.768 148.321 33.2906 147.481 33.664C146.641 34.0186 145.735 34.196 144.765 34.196C142.767 34.196 141.19 33.6453 140.033 32.544C138.894 31.424 138.325 29.772 138.325 27.588V19.048H141.825V27.112C141.825 28.456 142.123 29.464 142.721 30.136C143.337 30.7893 144.205 31.116 145.325 31.116C146.575 31.116 147.565 30.7333 148.293 29.968C149.039 29.184 149.413 28.064 149.413 26.608V19.048H152.913Z" fill="#FFF4EB"/>
<path d="M162.115 34.196C160.902 34.196 159.716 34.0373 158.559 33.72C157.402 33.4026 156.478 33.0013 155.787 32.516L157.131 29.856C157.803 30.304 158.606 30.668 159.539 30.948C160.491 31.2093 161.424 31.34 162.339 31.34C164.43 31.34 165.475 30.7893 165.475 29.688C165.475 29.1653 165.204 28.8013 164.663 28.596C164.14 28.3906 163.291 28.1946 162.115 28.008C160.883 27.8213 159.875 27.6066 159.091 27.364C158.326 27.1213 157.654 26.7013 157.075 26.104C156.515 25.488 156.235 24.6386 156.235 23.556C156.235 22.1373 156.823 21.008 157.999 20.168C159.194 19.3093 160.799 18.88 162.815 18.88C163.842 18.88 164.868 19.0013 165.895 19.244C166.922 19.468 167.762 19.776 168.415 20.168L167.071 22.828C165.802 22.0813 164.374 21.708 162.787 21.708C161.76 21.708 160.976 21.8666 160.435 22.184C159.912 22.4826 159.651 22.884 159.651 23.388C159.651 23.948 159.931 24.3493 160.491 24.592C161.07 24.816 161.956 25.0306 163.151 25.236C164.346 25.4226 165.326 25.6373 166.091 25.88C166.856 26.1226 167.51 26.5333 168.051 27.112C168.611 27.6906 168.891 28.512 168.891 29.576C168.891 30.976 168.284 32.096 167.071 32.936C165.858 33.776 164.206 34.196 162.115 34.196Z" fill="#FFF4EB"/>
</svg>
