<svg width="129" height="32" viewBox="0 0 129 32" fill="none" xmlns="http://www.w3.org/2000/svg">
<path d="M22.383 16C20.0347 18.6476 16.6223 20.3137 12.8242 20.3137C9.02606 20.3137 5.61359 18.6475 3.26538 16C5.61359 13.3525 9.02606 11.6863 12.8242 11.6863C16.6223 11.6863 20.0347 13.3525 22.383 16Z" fill="white"/>
<path fill-rule="evenodd" clip-rule="evenodd" d="M0 24.6275C0 17.4802 5.7416 11.6863 12.8242 11.6863C9.02612 11.6863 5.61368 13.3525 3.26548 16C5.61368 18.6475 9.02615 20.3137 12.8243 20.3137C16.6224 20.3137 20.0348 18.6476 22.383 16C24.4137 18.2896 25.6485 21.313 25.6485 24.6275V29.5163C25.6485 30.1516 25.1381 30.6667 24.5085 30.6667H1.13993C0.510365 30.6667 0 30.1516 0 29.5163V24.6275ZM22.383 16C22.383 16 22.383 16 22.383 16V16Z" fill="white"/>
<path fill-rule="evenodd" clip-rule="evenodd" d="M8.01402 19.3726C6.18289 18.6244 4.56197 17.4617 3.26548 16C5.61368 13.3524 9.02615 11.6863 12.8243 11.6863C16.6224 11.6863 20.0348 13.3524 22.383 16C22.383 16 22.383 16 22.383 16C24.4137 13.7104 25.6485 10.687 25.6485 7.37253V2.48364C25.6485 1.84833 25.1381 1.33332 24.5085 1.33332L1.13993 1.33331C0.510366 1.33331 4.78577e-07 1.84833 4.23538e-07 2.48364L0 7.37253C-8.5186e-07 12.8031 3.3148 17.4525 8.01402 19.3726Z" fill="white"/>
<path d="M45.6796 9.63733V22.6667H43.0899V17.1227H37.559V22.6667H34.9692V9.63733H37.559V14.9947H43.0899V9.63733H45.6796Z" fill="white"/>
<path d="M52.779 22.8347C51.7925 22.8347 50.9046 22.6169 50.1153 22.1813C49.3261 21.7333 48.7033 21.1049 48.247 20.296C47.8031 19.4871 47.5811 18.5538 47.5811 17.496C47.5811 16.4382 47.8092 15.5049 48.2655 14.696C48.7341 13.8871 49.3692 13.2649 50.1708 12.8293C50.9724 12.3813 51.8665 12.1573 52.853 12.1573C53.8396 12.1573 54.7337 12.3813 55.5352 12.8293C56.3368 13.2649 56.9657 13.8871 57.422 14.696C57.8906 15.5049 58.125 16.4382 58.125 17.496C58.125 18.5538 57.8845 19.4871 57.4035 20.296C56.9349 21.1049 56.2937 21.7333 55.4797 22.1813C54.6782 22.6169 53.7779 22.8347 52.779 22.8347ZM52.779 20.5573C53.2477 20.5573 53.6854 20.4453 54.0924 20.2213C54.5117 19.9849 54.8446 19.6364 55.0913 19.176C55.3379 18.7156 55.4612 18.1556 55.4612 17.496C55.4612 16.5129 55.2023 15.76 54.6843 15.2373C54.1787 14.7022 53.556 14.4347 52.816 14.4347C52.0761 14.4347 51.4534 14.7022 50.9477 15.2373C50.4545 15.76 50.2078 16.5129 50.2078 17.496C50.2078 18.4791 50.4483 19.2382 50.9292 19.7733C51.4225 20.296 52.0391 20.5573 52.779 20.5573Z" fill="white"/>
<path d="M69.6991 12.3253V22.6667H67.0908V21.36C66.7579 21.808 66.3201 22.1627 65.7775 22.424C65.2472 22.6729 64.6676 22.7973 64.0387 22.7973C63.2371 22.7973 62.528 22.6293 61.9114 22.2933C61.2948 21.9449 60.8077 21.4409 60.4501 20.7813C60.1048 20.1093 59.9321 19.3129 59.9321 18.392V12.3253H62.5218V18.0187C62.5218 18.84 62.7253 19.4747 63.1323 19.9227C63.5392 20.3582 64.0942 20.576 64.7971 20.576C65.5124 20.576 66.0735 20.3582 66.4804 19.9227C66.8874 19.4747 67.0908 18.84 67.0908 18.0187V12.3253H69.6991Z" fill="white"/>
<path d="M74.844 13.9307C75.1769 13.3831 75.6085 12.9538 76.1388 12.6427C76.6814 12.3316 77.298 12.176 77.9886 12.176V14.92H77.3042C76.4903 14.92 75.8737 15.1129 75.4544 15.4987C75.0474 15.8844 74.844 16.5564 74.844 17.5147V22.6667H72.2542V12.3253H74.844V13.9307Z" fill="white"/>
<path d="M83.747 12.1573C84.5116 12.1573 85.1837 12.3129 85.7633 12.624C86.3429 12.9227 86.7991 13.3147 87.1321 13.8V12.3253H89.7403V22.7413C89.7403 23.6996 89.5492 24.552 89.1669 25.2987C88.7846 26.0578 88.2112 26.6551 87.4466 27.0907C86.682 27.5387 85.7571 27.7627 84.6719 27.7627C83.2167 27.7627 82.0205 27.4204 81.0833 26.736C80.1584 26.0516 79.6343 25.1182 79.5109 23.936H82.0822C82.2178 24.4089 82.5076 24.7822 82.9516 25.056C83.4078 25.3422 83.9566 25.4853 84.5979 25.4853C85.3501 25.4853 85.9606 25.2551 86.4292 24.7947C86.8978 24.3467 87.1321 23.6622 87.1321 22.7413V21.136C86.7991 21.6213 86.3367 22.0258 85.7448 22.3493C85.1652 22.6729 84.4992 22.8347 83.747 22.8347C82.8837 22.8347 82.0945 22.6107 81.3792 22.1627C80.664 21.7147 80.0967 21.0862 79.6774 20.2773C79.2705 19.456 79.067 18.5164 79.067 17.4587C79.067 16.4133 79.2705 15.4862 79.6774 14.6773C80.0967 13.8684 80.6578 13.2462 81.3607 12.8107C82.076 12.3751 82.8714 12.1573 83.747 12.1573ZM87.1321 17.496C87.1321 16.8613 87.0088 16.32 86.7621 15.872C86.5155 15.4116 86.1825 15.0631 85.7633 14.8267C85.344 14.5778 84.8938 14.4533 84.4129 14.4533C83.932 14.4533 83.488 14.5716 83.081 14.808C82.6741 15.0444 82.3411 15.3929 82.0822 15.8533C81.8355 16.3013 81.7122 16.8364 81.7122 17.4587C81.7122 18.0809 81.8355 18.6284 82.0822 19.1013C82.3411 19.5618 82.6741 19.9164 83.081 20.1653C83.5003 20.4142 83.9443 20.5387 84.4129 20.5387C84.8938 20.5387 85.344 20.4204 85.7633 20.184C86.1825 19.9351 86.5155 19.5867 86.7621 19.1387C87.0088 18.6782 87.1321 18.1307 87.1321 17.496Z" fill="white"/>
<path d="M94.8593 8.85333V22.6667H92.2696V8.85333H94.8593Z" fill="white"/>
<path d="M96.7521 17.4587C96.7521 16.4133 96.9555 15.4862 97.3625 14.6773C97.7818 13.8684 98.3429 13.2462 99.0458 12.8107C99.7611 12.3751 100.556 12.1573 101.432 12.1573C102.197 12.1573 102.863 12.3129 103.43 12.624C104.009 12.9351 104.472 13.3271 104.817 13.8V12.3253H107.425V22.6667H104.817V21.1547C104.484 21.64 104.022 22.0444 103.43 22.368C102.85 22.6791 102.178 22.8347 101.414 22.8347C100.55 22.8347 99.7611 22.6107 99.0458 22.1627C98.3429 21.7147 97.7818 21.0862 97.3625 20.2773C96.9555 19.456 96.7521 18.5164 96.7521 17.4587ZM104.817 17.496C104.817 16.8613 104.694 16.32 104.447 15.872C104.201 15.4116 103.868 15.0631 103.448 14.8267C103.029 14.5778 102.579 14.4533 102.098 14.4533C101.617 14.4533 101.173 14.5716 100.766 14.808C100.359 15.0444 100.026 15.3929 99.7672 15.8533C99.5206 16.3013 99.3973 16.8364 99.3973 17.4587C99.3973 18.0809 99.5206 18.6284 99.7672 19.1013C100.026 19.5618 100.359 19.9164 100.766 20.1653C101.185 20.4142 101.629 20.5387 102.098 20.5387C102.579 20.5387 103.029 20.4204 103.448 20.184C103.868 19.9351 104.201 19.5867 104.447 19.1387C104.694 18.6782 104.817 18.1307 104.817 17.496Z" fill="white"/>
<path d="M113.876 22.8347C113.038 22.8347 112.285 22.6853 111.62 22.3867C110.954 22.0756 110.423 21.6587 110.029 21.136C109.646 20.6133 109.437 20.0347 109.4 19.4H112.008C112.057 19.7982 112.248 20.128 112.581 20.3893C112.927 20.6507 113.352 20.7813 113.858 20.7813C114.351 20.7813 114.733 20.6818 115.005 20.4827C115.288 20.2836 115.43 20.0284 115.43 19.7173C115.43 19.3813 115.257 19.1324 114.912 18.9707C114.579 18.7964 114.043 18.6098 113.303 18.4107C112.538 18.224 111.909 18.0311 111.416 17.832C110.935 17.6329 110.516 17.328 110.158 16.9173C109.813 16.5067 109.64 15.9529 109.64 15.256C109.64 14.6836 109.801 14.1609 110.121 13.688C110.454 13.2151 110.923 12.8418 111.527 12.568C112.144 12.2942 112.865 12.1573 113.691 12.1573C114.912 12.1573 115.886 12.4684 116.614 13.0907C117.342 13.7004 117.742 14.528 117.816 15.5733H115.338C115.301 15.1627 115.128 14.8391 114.82 14.6027C114.524 14.3538 114.123 14.2293 113.617 14.2293C113.149 14.2293 112.785 14.3164 112.526 14.4907C112.279 14.6649 112.156 14.9076 112.156 15.2187C112.156 15.5671 112.329 15.8347 112.674 16.0213C113.019 16.1956 113.556 16.376 114.283 16.5627C115.023 16.7493 115.634 16.9422 116.115 17.1413C116.595 17.3404 117.009 17.6516 117.354 18.0747C117.712 18.4853 117.897 19.0329 117.909 19.7173C117.909 20.3147 117.742 20.8498 117.409 21.3227C117.089 21.7956 116.62 22.1689 116.004 22.4427C115.399 22.704 114.69 22.8347 113.876 22.8347Z" fill="white"/>
<path d="M123.956 22.8347C123.118 22.8347 122.365 22.6853 121.699 22.3867C121.034 22.0756 120.503 21.6587 120.109 21.136C119.726 20.6133 119.517 20.0347 119.48 19.4H122.088C122.137 19.7982 122.328 20.128 122.661 20.3893C123.007 20.6507 123.432 20.7813 123.938 20.7813C124.431 20.7813 124.813 20.6818 125.085 20.4827C125.368 20.2836 125.51 20.0284 125.51 19.7173C125.51 19.3813 125.337 19.1324 124.992 18.9707C124.659 18.7964 124.123 18.6098 123.383 18.4107C122.618 18.224 121.989 18.0311 121.496 17.832C121.015 17.6329 120.596 17.328 120.238 16.9173C119.893 16.5067 119.72 15.9529 119.72 15.256C119.72 14.6836 119.881 14.1609 120.201 13.688C120.534 13.2151 121.003 12.8418 121.607 12.568C122.224 12.2942 122.945 12.1573 123.771 12.1573C124.992 12.1573 125.966 12.4684 126.694 13.0907C127.422 13.7004 127.822 14.528 127.896 15.5733H125.418C125.381 15.1627 125.208 14.8391 124.9 14.6027C124.604 14.3538 124.203 14.2293 123.697 14.2293C123.229 14.2293 122.865 14.3164 122.606 14.4907C122.359 14.6649 122.236 14.9076 122.236 15.2187C122.236 15.5671 122.409 15.8347 122.754 16.0213C123.099 16.1956 123.636 16.376 124.363 16.5627C125.103 16.7493 125.714 16.9422 126.194 17.1413C126.675 17.3404 127.089 17.6516 127.434 18.0747C127.791 18.4853 127.976 19.0329 127.989 19.7173C127.989 20.3147 127.822 20.8498 127.489 21.3227C127.169 21.7956 126.7 22.1689 126.084 22.4427C125.479 22.704 124.77 22.8347 123.956 22.8347Z" fill="white"/>
</svg>
