<svg width="278" height="224" viewBox="0 0 278 224" fill="none" xmlns="http://www.w3.org/2000/svg">
<g clip-path="url(#clip0_11_86)">
<g opacity="0.5">
<path d="M1.64869 78.0309C1.69386 77.9406 1.73903 77.8616 1.78419 77.7826C1.81807 77.7261 1.85195 77.6697 1.88582 77.6019C1.9197 77.5455 1.95357 77.4778 1.98745 77.4213C3.22956 75.1973 4.9911 73.3911 7.01236 72.5105L7.58825 72.2622L76.9207 42.041L146.253 11.8199L146.829 11.5715C148.85 10.6909 150.747 10.9054 152.238 11.9328C152.283 11.9553 152.317 11.9892 152.362 12.0118C152.407 12.0456 152.441 12.0682 152.486 12.1021L160.515 18.0289L155.321 19.5755L162.209 112.621C162.389 115.026 161.701 117.566 160.447 119.79C160.413 119.857 160.379 119.914 160.345 119.982C160.312 120.038 160.278 120.094 160.244 120.151C159.002 122.375 157.24 124.181 155.219 125.062L16.938 185.335L17.4913 191.182L9.88051 185.549C9.88051 185.549 9.80147 185.493 9.7563 185.459C8.26576 184.432 7.26078 182.625 7.08011 180.221L0.0226523 84.9512C-0.146727 82.6369 0.47433 80.1985 1.6374 78.0309H1.64869Z" fill="#1E1C17"/>
<path d="M23.2956 191.837L163.101 130.887C167.324 129.047 170.429 123.165 170.034 117.758L163.078 23.8428C162.683 18.4353 158.923 15.5453 154.7 17.3967L14.8944 78.347C10.6712 80.1871 7.56594 86.0688 7.96115 91.4763L14.917 185.391C15.3122 190.799 19.0724 193.689 23.2956 191.837Z" fill="url(#paint0_linear_11_86)"/>
<path d="M15.4701 78.0986L84.8025 47.8774L92.9779 158.286L23.8713 191.6C19.3319 193.576 15.3459 191.103 14.9733 186.08L7.9158 90.7989C7.54317 85.7639 10.9195 80.0855 15.4701 78.1099V78.0986Z" fill="#C78750"/>
<path d="M154.135 17.6454L84.8025 47.8665L92.9214 157.575L162.536 131.124C167.075 129.149 170.463 123.459 170.09 118.435L163.033 23.1545C162.66 18.1195 158.674 15.6472 154.135 17.6341V17.6454Z" fill="#C78750"/>
<path d="M168.464 125.366C167.098 127.918 164.986 130.063 162.536 131.135L23.8712 191.589C21.4209 192.661 19.1286 192.424 17.48 191.194L87.9416 90.3586L168.464 125.366Z" fill="#DB9F6A"/>
<path d="M9.54175 83.8677C10.9081 81.3164 13.0197 79.1714 15.47 78.0989L154.135 17.6454C156.585 16.5729 158.878 16.81 160.526 18.0405L90.0645 118.875L9.54175 83.8677Z" fill="#9A6434"/>
<path d="M39.3299 96.15C39.3751 96.0597 39.4089 95.9581 39.4541 95.8678C39.488 95.8 39.5106 95.7323 39.5444 95.6646C39.5783 95.5968 39.6122 95.5291 39.6461 95.4614C40.8091 92.9665 42.5481 90.878 44.6484 89.7716L45.2469 89.4555L117.38 51.2868L189.513 13.1181L190.111 12.802C192.211 11.6956 194.278 11.7634 195.96 12.7568C196.005 12.7794 196.051 12.8133 196.096 12.8358C196.141 12.8697 196.186 12.8923 196.231 12.9149L205.355 18.6385L199.89 20.7157L214.886 120.264C215.269 122.826 214.739 125.626 213.576 128.121C213.542 128.189 213.508 128.256 213.485 128.335C213.451 128.403 213.429 128.471 213.395 128.527C212.232 131.022 210.493 133.111 208.393 134.217L64.5222 210.34L65.5949 216.594L56.9566 211.153C56.9566 211.153 56.8663 211.096 56.8211 211.074C55.1273 210.092 53.8965 208.229 53.5126 205.655L38.1555 103.725C37.7829 101.253 38.2572 98.5659 39.3299 96.15Z" fill="#1E1C17"/>
<path d="M71.8958 216.832L217.347 139.862C221.751 137.536 224.608 130.955 223.738 125.175L208.607 24.6896C207.738 18.9095 203.469 16.1098 199.066 18.4354L53.6142 95.4163C49.2103 97.7419 46.3535 104.324 47.2229 110.104L62.3541 210.589C63.2236 216.369 67.492 219.168 71.8958 216.843V216.832Z" fill="url(#paint1_linear_11_86)"/>
<path d="M54.2013 95.1001L126.334 56.9314L144.13 175.05L72.4942 216.515C67.7629 219.021 63.28 216.685 62.467 211.3L47.11 109.37C46.297 103.985 49.47 97.595 54.2013 95.1001Z" fill="#C78750"/>
<path d="M198.467 18.7628L126.334 56.9316L144.017 174.305L216.76 140.178C221.491 137.672 224.664 131.282 223.851 125.908L208.494 23.9784C207.681 18.5935 203.198 16.2566 198.467 18.7628Z" fill="url(#paint2_linear_11_86)"/>
<path d="M222.666 133.484C221.401 136.328 219.312 138.823 216.749 140.178L72.4829 216.515C69.931 217.87 67.4467 217.791 65.5723 216.606L133.166 102.382L222.654 133.484H222.666Z" fill="#DB9F6A"/>
<path d="M48.2957 101.795C49.5604 98.9499 51.6494 96.455 54.2126 95.1003L198.467 18.7628C201.019 17.4081 203.503 17.4871 205.378 18.6725L137.784 132.896L48.2957 101.795Z" fill="#9A6434"/>
</g>
<path d="M79.2129 95.7209C79.2581 95.6193 79.292 95.5177 79.3371 95.4161C79.371 95.3483 79.3936 95.2693 79.4275 95.2016C79.4614 95.1226 79.4952 95.0548 79.5291 94.9758C80.6696 92.2664 82.4424 89.986 84.6331 88.7103L85.2541 88.3491L160.594 44.8405L235.922 1.3546L236.543 0.993343C238.734 -0.271046 240.936 -0.282335 242.777 0.711113C242.833 0.733691 242.878 0.767559 242.923 0.790137C242.968 0.824005 243.025 0.846583 243.07 0.869161L253.018 6.60407L247.282 9.03124L267.178 114.495C267.687 117.215 267.235 120.218 266.094 122.917C266.06 122.996 266.027 123.063 266.004 123.142C265.97 123.21 265.948 123.289 265.914 123.357C264.773 126.066 263 128.358 260.81 129.622L110.548 216.391L111.937 223.006L102.519 217.554C102.519 217.554 102.418 217.497 102.373 217.475C100.532 216.493 99.1545 214.551 98.635 211.83L78.2644 103.838C77.7676 101.219 78.1741 98.34 79.2242 95.7209H79.2129Z" fill="#1E1C17"/>
<path d="M118.667 223.006L270.589 135.278C275.185 132.625 277.974 125.513 276.811 119.383L256.734 12.9372C255.582 6.80715 250.918 3.99615 246.323 6.6491L94.4009 94.3661C89.8051 97.019 87.016 104.131 88.179 110.261L108.256 216.707C109.408 222.837 114.071 225.648 118.667 222.995V223.006Z" fill="url(#paint3_linear_11_86)"/>
<path d="M95.0217 94.0048L170.361 50.4963L193.973 175.637L119.288 222.634C114.354 225.49 109.475 223.176 108.403 217.475L88.032 109.482C86.9593 103.781 90.0872 96.8497 95.0217 93.9936V94.0048Z" fill="#C78750"/>
<path d="M245.701 6.99926L170.362 50.5078L193.826 174.858L269.979 135.64C274.914 132.783 278.041 125.852 276.969 120.151L256.598 12.1584C255.525 6.45738 250.647 4.1431 245.713 6.99926H245.701Z" fill="#C78750"/>
<path d="M275.997 128.268C274.767 131.349 272.632 134.093 269.968 135.628L119.288 222.634C116.623 224.169 113.981 224.192 111.937 223.006L179.451 98.656L276.009 128.268H275.997Z" fill="#DB9F6A"/>
<path d="M88.9805 101.377C90.2113 98.2947 92.3455 95.5514 95.0104 94.0161L245.701 6.99904C248.366 5.46371 251.008 5.44113 253.052 6.62649L185.538 130.977L88.9805 101.365V101.377Z" fill="#9A6434"/>
</g>
<defs>
<linearGradient id="paint0_linear_11_86" x1="98.0903" y1="100.743" x2="-56.6948" y2="168.255" gradientUnits="userSpaceOnUse">
<stop stop-color="#7BDAFF"/>
<stop offset="1" stop-color="#59BDEF"/>
</linearGradient>
<linearGradient id="paint1_linear_11_86" x1="116.201" y1="128.043" x2="-44.8345" y2="213.292" gradientUnits="userSpaceOnUse">
<stop stop-color="#7BDAFF"/>
<stop offset="1" stop-color="#59BDEF"/>
</linearGradient>
<linearGradient id="paint2_linear_11_86" x1="218.828" y1="194.881" x2="70.6545" y2="151.223" gradientUnits="userSpaceOnUse">
<stop offset="0.77" stop-color="#59BDEF"/>
<stop offset="0.85" stop-color="#54B8EB"/>
<stop offset="0.93" stop-color="#48AAE1"/>
<stop offset="1" stop-color="#3A9BD5"/>
</linearGradient>
<linearGradient id="paint3_linear_11_86" x1="155.603" y1="130.506" x2="-12.577" y2="227.668" gradientUnits="userSpaceOnUse">
<stop stop-color="#7BDAFF"/>
<stop offset="1" stop-color="#59BDEF"/>
</linearGradient>
<clipPath id="clip0_11_86">
<rect width="277.172" height="224" fill="white"/>
</clipPath>
</defs>
</svg>
